{
	"asset":{
		"generator":"Khronos glTF Blender I/O v3.6.27",
		"version":"2.0"
	},
	"extensionsUsed":[
		"KHR_materials_specular",
		"KHR_materials_ior"
	],
	"scene":0,
	"scenes":[
		{
			"name":"Scene",
			"nodes":[
				0,
				1
			]
		}
	],
	"nodes":[
		{
			"mesh":0,
			"name":"ring 1"
		},
		{
			"mesh":1,
			"name":"ball",
			"translation":[
				0,
				1.2286276817321777,
				0
			]
		}
	],
	"materials":[
		{
			"doubleSided":true,
			"extensions":{
				"KHR_materials_specular":{
					"specularColorFactor":[
						1.7295681229454463,
						1.7295681229454463,
						1.7295681229454463
					]
				},
				"KHR_materials_ior":{
					"ior":1.4500000476837158
				}
			},
			"name":"Material.002",
			"pbrMetallicRoughness":{
				"baseColorFactor":[
					0.27543601393699646,
					0.0014165382599458098,
					0,
					1
				],
				"metallicFactor":0.2752293348312378,
				"roughnessFactor":0.7568807601928711
			}
		},
		{
			"doubleSided":true,
			"extensions":{
				"KHR_materials_specular":{
					"specularColorFactor":[
						2.371357614441398,
						2.371357614441398,
						2.371357614441398
					]
				},
				"KHR_materials_ior":{
					"ior":1.4500000476837158
				}
			},
			"name":"Material.001",
			"pbrMetallicRoughness":{
				"baseColorFactor":[
					0.0959203913807869,
					0.0037472753319889307,
					0.0022163609974086285,
					1
				],
				"metallicFactor":0.7064220309257507,
				"roughnessFactor":0
			}
		}
	],
	"meshes":[
		{
			"name":"Torus",
			"primitives":[
				{
					"attributes":{
						"POSITION":0,
						"NORMAL":1,
						"TEXCOORD_0":2,
						"TANGENT":3
					},
					"indices":4,
					"material":0
				}
			]
		},
		{
			"name":"Sphere",
			"primitives":[
				{
					"attributes":{
						"POSITION":5,
						"NORMAL":6,
						"TEXCOORD_0":7,
						"TANGENT":8
					},
					"indices":9,
					"material":1
				}
			]
		}
	],
	"accessors":[
		{
			"bufferView":0,
			"componentType":5126,
			"count":1904,
			"max":[
				1.25,
				0.397490918636322,
				1.2496564388275146
			],
			"min":[
				-1.2486261129379272,
				-0.397490918636322,
				-1.2496564388275146
			],
			"type":"VEC3"
		},
		{
			"bufferView":1,
			"componentType":5126,
			"count":1904,
			"type":"VEC3"
		},
		{
			"bufferView":2,
			"componentType":5126,
			"count":1904,
			"type":"VEC2"
		},
		{
			"bufferView":3,
			"componentType":5126,
			"count":1904,
			"type":"VEC4"
		},
		{
			"bufferView":4,
			"componentType":5123,
			"count":10854,
			"type":"SCALAR"
		},
		{
			"bufferView":5,
			"componentType":5126,
			"count":2077,
			"max":[
				0.9999997019767761,
				1,
				0.9999993443489075
			],
			"min":[
				-0.9999990463256836,
				-1,
				-1
			],
			"type":"VEC3"
		},
		{
			"bufferView":6,
			"componentType":5126,
			"count":2077,
			"type":"VEC3"
		},
		{
			"bufferView":7,
			"componentType":5126,
			"count":2077,
			"type":"VEC2"
		},
		{
			"bufferView":8,
			"componentType":5126,
			"count":2077,
			"type":"VEC4"
		},
		{
			"bufferView":9,
			"componentType":5123,
			"count":11520,
			"type":"SCALAR"
		}
	],
	"bufferViews":[
		{
			"buffer":0,
			"byteLength":22848,
			"byteOffset":0,
			"target":34962
		},
		{
			"buffer":0,
			"byteLength":22848,
			"byteOffset":22848,
			"target":34962
		},
		{
			"buffer":0,
			"byteLength":15232,
			"byteOffset":45696,
			"target":34962
		},
		{
			"buffer":0,
			"byteLength":30464,
			"byteOffset":60928,
			"target":34962
		},
		{
			"buffer":0,
			"byteLength":21708,
			"byteOffset":91392,
			"target":34963
		},
		{
			"buffer":0,
			"byteLength":24924,
			"byteOffset":113100,
			"target":34962
		},
		{
			"buffer":0,
			"byteLength":24924,
			"byteOffset":138024,
			"target":34962
		},
		{
			"buffer":0,
			"byteLength":16616,
			"byteOffset":162948,
			"target":34962
		},
		{
			"buffer":0,
			"byteLength":33232,
			"byteOffset":179564,
			"target":34962
		},
		{
			"buffer":0,
			"byteLength":23040,
			"byteOffset":212796,
			"target":34963
		}
	],
	"buffers":[
		{
			"byteLength":235836,
			"uri":"data:application/octet-stream;base64,"
		}
	]
}
